<?xml version="1.0" encoding="UTF-8"?>
<!DOCTYPE svg PUBLIC "-//W3C//DTD SVG 1.1//EN" "http://www.w3.org/Graphics/SVG/1.1/DTD/svg11.dtd">
<!-- Creator: CorelDRAW 2021 (64-Bit) -->
<svg xmlns="http://www.w3.org/2000/svg" xml:space="preserve" width="147.461mm" height="166.14mm" version="1.1" style="shape-rendering:geometricPrecision; text-rendering:geometricPrecision; image-rendering:optimizeQuality; fill-rule:evenodd; clip-rule:evenodd"
viewBox="0 0 48998.93 55205.57"
 xmlns:xlink="http://www.w3.org/1999/xlink"
 xmlns:xodm="http://www.corel.com/coreldraw/odm/2003">
 <defs>
  <style type="text/css">
   <![CDATA[
    .fil2 {fill:#0A2802}
    .fil3 {fill:#848583}
    .fil0 {fill:#91AB50}
    .fil1 {fill:#EC1B23}
    .fil4 {fill:black;fill-rule:nonzero}
   ]]>
  </style>
 </defs>
 <g id="Capa_x0020_1">
  <metadata id="CorelCorpID_0Corel-Layer"/>
  <g id="_2384076857984">
   <path class="fil0" d="M24616.7 38083c1693.12,0 4801.5,1476.47 5461.98,-3329.69 113.24,-823.9 84.23,-1251.78 279.12,-1948.11 1660.59,-5933.3 9546.49,-6565.63 14690.91,-5893.66 819.88,107.1 1245.97,180.43 2025.2,319.23l1925.02 419.44c-600.3,-819.35 -4614.79,-2447.01 -5892.19,-2899.51 -3595.55,-1273.64 -5504.02,-1474.98 -9197.02,-1939.08 -550.2,-69.15 -1352.93,-205.09 -2021.22,-206.02 -2980.99,-4.02 -7624.92,-29.01 -10565.2,578.97 -539.2,111.48 -1466.57,173.62 -1868.1,362.82l3.02 2933.2c827.92,64.3 1825.07,201.16 1899.73,1052.38 -220.97,1070.92 -4549.37,1092.08 -4594.16,-117.23 206.25,-808.98 1060.12,-743.62 1966.42,-988.21l25.19 -25738.49c-279.35,440.84 -117.06,10928.75 -117.06,11370.56 0,3868.35 0,7736.7 0,11605.02l-3216.08 886.73c-1508.97,439.74 -3109.68,1263.98 -4505.04,1824.94 -495.73,199.27 -868.26,469.92 -1354.46,755.55l-2548.15 1671.85c-231.73,185.31 -328.36,303.01 -567.64,487.36 -1094.61,843.3 -2901.27,2776.37 -3633.76,3751.25 -300.19,399.54 -582.13,775.12 -868.39,1241.61 -585.58,954.22 -1923.56,3430.3 -1944.83,4385.15 301.05,-220.54 586.81,-748.64 907.6,-1085.17l498.96 -556.04c876.1,-1056.2 1784.53,-1551.43 3125.03,-2149.98 2429.1,-1084.58 4076.83,-1093.71 7304.53,-894.34 1573.73,97.19 5192.83,1199.05 6636.31,1803.67 2659.87,1114.18 3099.61,1248.32 5726.58,2127.35 36.09,12.06 141.39,47.28 174.52,59.94l163.72 70.74c17.58,7.51 54.69,22.03 79.45,37.75z"/>
   <path class="fil1" d="M32118.91 1509.63c-677.99,496.73 -1574.63,2589.82 -4154.75,638.08l-1284.84 -942.39c-1886.54,-1238.26 -4385.12,-1706.38 -6634.28,-516.27l0 6564.47c1880.43,-1259.22 2967.16,-1585.89 5593.54,-1139.14 432.27,73.53 1552.76,298.79 1986.39,267.46 2596.97,-187.71 4493.94,-2825.91 4493.94,-4872.21z"/>
   <path class="fil2" d="M18755.41 689.06l-25.19 25738.49c-906.3,244.59 -1760.17,179.23 -1966.42,988.21 44.79,1209.31 4373.19,1188.15 4594.16,117.23 -74.66,-851.21 -1071.82,-988.08 -1899.73,-1052.38l-3.02 -2933.2 3.72 -20982.81c0,-474.3 37.55,-1087.1 13.92,-1539.74 -36.78,-704.21 -378.5,-797.81 -717.43,-335.81z"/>
   <polygon class="fil3" points="32118.91,1509.63 32253.71,1281.02 "/>
   <path class="fil4" d="M38120.39 38413.26l1416.56 0 0 280.91 -1002.73 335.01c-93.34,31 -163.22,53.43 -209.7,67.62 51.44,16.15 127.26,41.54 227.18,75.83l985.26 340.96 0 250.91 -1416.56 0 0 -180.03 1185.06 0 -1185.06 -413.49 0 -168.8 1206.82 -408.88 -1206.82 0 0 -180.03z"/>
   <path id="_1" class="fil4" d="M38120.39 39909.94l1416.56 543.38 0 206.08 -1416.56 577.04 0 -213.66 429.31 -163.88 0 -596.48 -429.31 -153.68 0 -198.81zm581.66 407.55l0 482.74 392.69 -147.73c119.39,-44.53 217.98,-78.15 295.8,-101.55 -92.34,-19.47 -183.02,-45.52 -272.71,-78.15l-415.79 -155.31z"/>
   <path id="_2" class="fil4" d="M38575.42 41323.5l15.85 176.08c-71.24,8.24 -129.59,27.68 -175.45,58.35 -45.49,30.67 -82.44,78.15 -110.78,142.45 -28.01,64.3 -42.2,136.83 -42.2,217.31 0,71.54 10.53,134.51 31.97,189.27 21.43,54.73 50.81,95.3 88.06,121.98 37.25,26.72 77.82,40.24 121.35,40.24 44.16,0 82.77,-12.86 116.07,-38.58 32.96,-25.72 60.68,-68.25 83.4,-127.6 14.52,-37.95 37.61,-122.01 68.92,-252.27 31.33,-130.22 60.68,-221.23 88.39,-273.34 35.62,-67.59 79.78,-117.73 132.22,-150.69 52.43,-33.29 111.45,-49.81 176.41,-49.81 71.87,0 138.83,20.47 200.8,61.01 62.34,40.57 109.49,99.59 141.79,177.74 32.33,77.82 48.48,164.55 48.48,259.85 0,104.84 -16.81,197.51 -50.77,277.62 -33.63,80.11 -83.44,141.79 -149.36,184.98 -65.63,43.2 -140.16,66.29 -223.23,69.58l-13.86 -180.03c89.35,-9.57 156.94,-42.23 202.46,-97.96 45.82,-55.72 68.58,-138.13 68.58,-246.95 0,-113.44 -20.77,-196.21 -62.34,-247.98 -41.54,-51.74 -91.64,-77.79 -150.36,-77.79 -50.77,0 -92.64,18.44 -125.64,55.06 -32.63,35.92 -66.59,130.22 -100.88,282.57 -34.62,152.35 -64.63,256.86 -90.35,313.58 -37.91,82.11 -85.73,143.11 -144.11,182.36 -58.02,39.24 -124.97,58.68 -200.8,58.68 -75.49,0 -146.07,-21.43 -212.66,-64.63 -66.62,-43.2 -118.39,-104.84 -155.31,-185.65 -36.95,-80.78 -55.39,-171.46 -55.39,-272.67 0,-127.96 18.77,-235.12 56.02,-321.52 37.28,-86.69 93.34,-154.31 168.5,-203.76 74.86,-49.14 159.6,-74.86 254.23,-77.49z"/>
   <path id="_3" class="fil4" d="M38676.33 43916.85l166.18 0 0 599.47 -524.94 0c-73.2,-92.01 -128.59,-186.94 -165.51,-284.9 -36.95,-97.92 -55.39,-198.51 -55.39,-301.38 0,-139.13 29.67,-265.43 89.35,-379.17 59.35,-113.44 145.74,-199.5 258.18,-257.22 112.74,-58.02 238.71,-87.03 377.54,-87.03 137.83,0 266.43,28.68 386.11,86.39 119.36,57.68 208.08,140.46 265.76,248.61 58.05,108.16 87.06,232.8 87.06,373.92 0,102.21 -16.48,194.85 -49.78,277.62 -33.33,82.77 -79.48,147.73 -138.5,194.55 -59.35,47.15 -136.83,82.77 -232.13,107.16l-46.15 -169.17c71.87,-21.43 128.59,-47.78 170.13,-79.12 41.2,-31.67 74.2,-76.49 98.92,-135.21 24.72,-58.35 37.25,-123.31 37.25,-194.85 0,-85.43 -13.19,-159.6 -39.21,-221.93 -26.05,-62.3 -60.34,-112.78 -103.21,-151.02 -42.57,-38.25 -89.38,-67.92 -140.16,-89.02 -88.02,-35.95 -182.99,-54.06 -285.56,-54.06 -126.6,0 -232.43,21.73 -317.86,64.93 -85.06,43.53 -148.36,106.86 -189.6,189.6 -41.2,83.1 -61.97,171.16 -61.97,264.46 0,81.11 15.82,160.26 47.15,237.42 31.67,77.16 64.96,135.51 100.88,175.41l265.46 0 0 -415.49z"/>
   <path id="_4" class="fil4" d="M38809.88 44735.6c234.76,0 418.74,63.3 551.62,189.6 132.91,126.27 199.17,289.19 199.17,488.99 0,130.92 -31.33,248.61 -93.64,353.82 -62.34,104.84 -149.36,184.98 -261.14,240.04 -111.45,55.06 -238.08,82.77 -379.53,82.77 -143.45,0 -272.04,-29.01 -385.15,-87.06 -113.41,-58.02 -199.14,-140.12 -257.19,-246.32 -58.35,-106.5 -87.36,-221.23 -87.36,-344.25 0,-133.54 32.3,-252.57 96.59,-357.74 64.3,-104.87 152.02,-184.68 263.47,-238.75 111.12,-54.06 228.84,-81.11 353.15,-81.11zm-3.32 193.89c-170.46,0 -304.67,45.82 -402.6,137.5 -97.92,91.68 -147.07,206.75 -147.07,345.24 0,141.12 49.48,256.86 148.4,348.2 98.92,90.98 239.38,136.5 421.4,136.5 115.07,0 215.65,-19.47 301.38,-58.38 85.73,-38.88 152.32,-95.93 199.47,-170.79 47.15,-75.16 70.91,-159.26 70.91,-252.57 0,-132.55 -45.52,-246.65 -136.5,-342.29 -91.01,-95.6 -242.7,-143.41 -455.4,-143.41z"/>
   <polygon id="_5" class="fil4" points="38120.39,46323.91 39536.95,46323.91 39536.95,46511.89 38286.56,46511.89 38286.56,47208.29 38120.39,47208.29 "/>
   <polygon id="_6" class="fil4" points="38120.39,47442.05 39536.95,47442.05 39536.95,48397.63 39370.74,48397.63 39370.74,47630.02 38929.56,47630.02 38929.56,48294.76 38763.39,48294.76 38763.39,47630.02 38120.39,47630.02 "/>
   <path class="fil4" d="M5840.62 55140.8l-1491.92 -3863.4 553.95 0 1003.63 2807.63c80.05,224.82 148.36,435.26 202.33,632.2 59.35,-211.33 128.59,-421.77 207.74,-632.2l1041.38 -2807.63 521.62 0 -1506.34 3863.4 -532.39 0z"/>
   <polygon id="_1_0" class="fil4" points="8426.12,55140.8 8426.12,51277.4 8938.71,51277.4 8938.71,55140.8 "/>
   <path id="_2_1" class="fil4" d="M9415.33 55140.8l1482.05 -3863.4 562.06 0 1573.8 3863.4 -582.76 0 -446.96 -1170.9 -1626.83 0 -419.08 1170.9 -542.29 0zm1111.56 -1586.36l1316.58 0 -402.89 -1071.08c-121.42,-325.54 -213.13,-594.42 -276.99,-806.65 -53.07,251.8 -124.11,499.09 -213.13,743.72l-423.56 1134.02z"/>
   <path id="_3_2" class="fil4" d="M13178.92 54043.67l458.65 -62.97c12.59,295.87 67.45,498.23 165.48,607.95 98.02,108.79 234.69,163.65 408.28,163.65 127.7,0 238.31,-29.67 330.92,-88.12 92.64,-59.35 157.4,-139.39 192.46,-240.11 35.09,-100.72 52.17,-262.6 52.17,-483.84l0 -2662.82 512.58 0 0 2632.25c0,322.85 -38.64,572.86 -116.9,750.93 -78.22,177.14 -201.43,312.05 -371.39,405.59 -169.07,92.61 -367.84,139.39 -595.35,139.39 -339.03,0 -598.04,-97.13 -777.88,-292.28 -179.87,-195.15 -266.19,-484.74 -259.02,-869.62z"/>
   <polygon id="_4_3" class="fil4" points="16146.61,55140.8 16146.61,51277.4 18936.23,51277.4 18936.23,51730.67 16659.23,51730.67 16659.23,52917.72 18790.56,52917.72 18790.56,53370.99 16659.23,53370.99 16659.23,54687.57 19027.98,54687.57 19027.98,55140.8 "/>
   <path id="_5_4" class="fil4" d="M19567.57 53899.76l480.22 -43.16c22.5,194.25 75.53,353.45 159.16,478.46 83.64,124.07 213.16,224.82 388.51,302.15 175.38,76.46 373.22,115.1 592.63,115.1 195.15,0 366.94,-28.78 516.2,-87.22 149.3,-58.45 259.91,-138.5 332.75,-240.11 72.84,-101.61 109.72,-212.23 109.72,-330.95 0,-120.49 -35.09,-225.72 -105.23,-316.53 -70.15,-89.95 -186.15,-165.48 -348.03,-227.55 -103.41,-39.54 -332.72,-102.51 -687.96,-187.94 -355.21,-85.43 -603.43,-165.48 -745.51,-241.01 -184.35,-97.13 -321.05,-217.65 -410.97,-360.63 -90.85,-142.98 -135.8,-303.97 -135.8,-481.11 0,-196.05 55.76,-378.6 166.37,-547.67 110.62,-169.96 271.58,-298.59 484.74,-386.71 212.23,-88.12 448.75,-132.18 708.63,-132.18 286,0 538.7,45.86 757.21,138.5 218.54,91.71 386.71,227.51 504.51,407.38 117.83,178.93 180.76,382.19 189.77,608.81l-491.02 37.78c-26.08,-243.73 -115.14,-428.08 -267.09,-552.19 -151.99,-125.01 -376.81,-187.04 -673.57,-187.04 -309.39,0 -535.11,56.65 -676.3,169.96 -141.19,113.31 -212.23,250.01 -212.23,410.07 0,138.5 50.37,252.7 150.19,342.65 98.92,89.02 355.21,181.66 770.7,275.2 415.45,94.4 700.55,176.24 855.23,246.39 223.93,103.41 390.3,233.83 497.3,392.99 107.03,158.27 160.09,340.82 160.09,547.67 0,205.95 -58.45,398.41 -176.28,580.07 -117.79,181.66 -285.96,322.85 -506.3,423.56 -220.34,100.72 -467.62,151.09 -743.72,151.09 -348.93,0 -641.21,-51.27 -876.83,-152.88 -236.49,-101.65 -420.87,-254.5 -554.85,-459.55 -134.91,-204.16 -205.05,-435.26 -212.23,-693.38z"/>
   <path id="_6_5" class="fil4" d="M24832.98 55140.8l0 -3863.4 1330.96 0c300.35,0 529.66,18.01 687.96,54.86 221.2,51.27 410.07,143.91 566.54,276.99 204.16,172.65 356.14,392.1 456.86,660.08 101.61,267.99 151.99,574.65 151.99,919.1 0,293.17 -34.19,553.05 -102.54,779.67 -68.35,226.62 -156.47,414.59 -263.5,562.96 -107.89,148.4 -224.82,265.3 -352.52,349.83 -126.8,85.46 -280.58,150.19 -460.45,194.25 -180.73,44.06 -387.58,65.66 -621.4,65.66l-1393.9 0zm512.58 -453.24l823.77 0c254.5,0 454.13,-23.39 598.94,-71.04 144.78,-47.68 259.88,-114.24 346.21,-200.57 120.52,-121.38 214.95,-285.07 282.41,-490.12 67.42,-205.02 101.61,-453.24 101.61,-745.51 0,-404.69 -66.56,-715.84 -198.74,-933.45 -132.22,-217.65 -293.17,-363.32 -482.94,-437.09 -136.7,-53.03 -357.01,-79.12 -660.98,-79.12l-810.27 0 0 2956.9z"/>
   <polygon id="_7" class="fil4" points="28740.41,55140.8 28740.41,51277.4 31530.03,51277.4 31530.03,51730.67 29253.02,51730.67 29253.02,52917.72 31384.36,52917.72 31384.36,53370.99 29253.02,53370.99 29253.02,54687.57 31621.78,54687.57 31621.78,55140.8 "/>
   <path id="_8" class="fil4" d="M35635.37 53624.59l0 -453.27 1634.9 0 0 1431.71c-250.91,199.64 -509.89,350.73 -776.98,451.44 -267.09,100.72 -541.39,151.09 -821.97,151.09 -379.5,0 -723.91,-80.94 -1034.2,-243.73 -309.36,-161.86 -544.05,-397.48 -701.45,-704.14 -158.27,-307.56 -237.42,-651.08 -237.42,-1029.68 0,-375.91 78.25,-726.64 235.62,-1053.11 157.37,-325.54 383.12,-567.44 678.09,-724.81 294.97,-158.3 634.9,-237.42 1019.78,-237.42 278.79,0 531.49,44.96 757.21,135.77 225.72,90.85 402.89,216.75 530.59,377.71 128.59,161.89 225.72,373.22 292.28,633.13l-461.34 125.9c-58.45,-196.05 -130.39,-350.76 -215.82,-464.07 -86.33,-112.41 -208.64,-202.33 -368.74,-269.78 -159.16,-67.45 -336.34,-101.61 -531.46,-101.61 -232.93,0 -434.36,35.95 -605.26,107.03 -169.96,71.04 -306.66,164.55 -411.87,281.48 -104.3,116 -185.25,243.7 -242.8,382.19 -98.02,240.11 -147.5,499.12 -147.5,778.77 0,345.34 59.35,634.03 177.17,866.93 118.69,232.03 291.38,404.69 517.1,517.1 226.62,112.41 466.73,169.07 721.22,169.07 221.23,0 437.05,-43.16 647.49,-128.59 210.44,-86.33 369.63,-177.17 478.42,-275.2l0 -723.91 -1133.09 0z"/>
   <path id="_9" class="fil4" d="M37868.28 53260.38c0,-640.31 172.69,-1142.13 517.1,-1504.55 344.45,-362.39 788.71,-543.15 1333.69,-543.15 357.01,0 678.06,85.43 964.92,255.39 286,169.96 504.51,407.38 654.7,712.25 150.19,303.94 225.72,649.28 225.72,1035.1 0,391.2 -79.12,741.92 -237.42,1050.38 -158.27,309.36 -382.19,543.15 -671.78,701.45 -290.45,159.16 -603.43,238.31 -938.87,238.31 -364.22,0 -688.86,-88.15 -975.72,-263.5 -286,-175.38 -503.61,-414.59 -651.11,-718.53 -147.47,-303.08 -221.23,-624.13 -221.23,-963.16zm528.8 8.97c0,464.97 125.01,830.98 375.02,1098.07 250.01,267.09 563.85,401.07 941.56,401.07 384.92,0 700.55,-134.87 949.67,-404.66 248.22,-269.81 372.29,-652.9 372.29,-1149.3 0,-313.88 -53.03,-588.14 -159.16,-821.97 -106.1,-233.83 -261.71,-415.49 -465.83,-544.08 -205.05,-128.59 -434.36,-193.36 -688.86,-193.36 -361.53,0 -672.68,124.11 -933.49,372.32 -260.78,248.22 -391.2,661.88 -391.2,1241.91z"/>
   <polygon id="_10" class="fil4" points="42200.2,55140.8 42200.2,51277.4 42712.82,51277.4 42712.82,54687.57 44612.12,54687.57 44612.12,55140.8 "/>
   <polygon id="_11" class="fil4" points="45249.74,55140.8 45249.74,51277.4 47855.91,51277.4 47855.91,51730.67 45762.32,51730.67 45762.32,52933.94 47575.33,52933.94 47575.33,53387.18 45762.32,53387.18 45762.32,55140.8 "/>
   <polygon class="fil4" points="13603.81,38239.54 16297.43,38239.54 19142.52,45179.49 19263.24,45179.49 22108.35,38239.54 24799.59,38239.54 24799.59,48568.99 22683.5,48568.99 22683.5,41846.79 22595.94,41846.79 19923.62,48519.28 18482.14,48519.28 15807.48,41820.77 15722.25,41820.77 15722.25,48568.99 13603.81,48568.99 "/>
   <path id="_1_6" class="fil4" d="M33446.15 41579.33c-71.01,-246.16 -170.43,-463.93 -298.26,-653.27 -127.8,-189.37 -284.04,-350.33 -466.29,-485.23 -182.26,-132.55 -392.89,-234.33 -624.86,-305.34 -234.33,-68.65 -492.35,-104.17 -774.02,-104.17 -527.83,0 -991.73,130.19 -1389.41,392.93 -400,262.74 -710.09,643.83 -930.2,1143.26 -222.5,497.06 -333.75,1107.74 -333.75,1827.3 0,719.56 108.89,1330.23 326.64,1834.41 220.14,506.53 527.83,889.99 927.87,1152.69 400,265.13 873.41,397.68 1417.79,397.68 494.7,0 918.4,-89.95 1268.69,-265.13 352.69,-177.51 620.14,-426.05 807.15,-750.3 186.98,-321.92 279.28,-703.01 279.28,-1143.26l444.99 63.9 -2662.82 0 0 -1642.68 4322.08 0 0 1301.86c0,906.54 -191.73,1685.28 -575.18,2336.19 -383.46,650.91 -911.29,1152.69 -1583.5,1503.02 -672.21,350.33 -1443.84,527.83 -2310.17,527.83 -968.08,0 -1820.19,-215.39 -2551.58,-643.8 -733.78,-428.45 -1304.21,-1039.12 -1713.69,-1829.69 -407.11,-792.93 -610.67,-1732.63 -610.67,-2823.78 0,-835.56 120.72,-1583.5 364.52,-2241.52 243.8,-655.66 586.98,-1214.27 1027.26,-1671.09 440.24,-456.82 951.53,-804.76 1536.15,-1043.84 587.01,-239.05 1218.98,-357.4 1903.06,-357.4 584.65,0 1129.03,85.2 1633.21,253.27 504.17,170.43 951.53,409.47 1344.42,719.56 390.57,310.05 712.48,676.96 961,1100.62 248.55,426.05 407.11,894.74 478.12,1405.99l-2217.83 0z"/>
  </g>
 </g>
</svg>
