<?xml version="1.0" encoding="UTF-8"?>
<!DOCTYPE svg PUBLIC "-//W3C//DTD SVG 1.1//EN" "http://www.w3.org/Graphics/SVG/1.1/DTD/svg11.dtd">
<!-- Creator: CorelDRAW 2021 (64-Bit) -->
<svg xmlns="http://www.w3.org/2000/svg" xml:space="preserve" width="107.5mm" height="76.5576mm" version="1.1" style="shape-rendering:geometricPrecision; text-rendering:geometricPrecision; image-rendering:optimizeQuality; fill-rule:evenodd; clip-rule:evenodd"
viewBox="0 0 13257.35 9441.44"
 xmlns:xlink="http://www.w3.org/1999/xlink"
 xmlns:xodm="http://www.corel.com/coreldraw/odm/2003">
 <defs>
  <style type="text/css">
   <![CDATA[
    .str0 {stroke:#F58634;stroke-width:87.02;stroke-miterlimit:22.9256}
    .fil2 {fill:none}
    .fil0 {fill:#F49223}
    .fil1 {fill:#FEFEFE;fill-rule:nonzero}
   ]]>
  </style>
 </defs>
 <g id="Capa_x0020_1">
  <metadata id="CorelCorpID_0Corel-Layer"/>
  <g id="_2281629825008">
   <path class="fil0" d="M8270.17 7506.95l-2962.6 0 0 -337.75c106.16,-3.22 244.48,-14.48 413.35,-32.18 167.28,-19.3 283.08,-46.64 345.8,-80.42 98.1,-59.5 168.88,-128.66 213.91,-205.87 46.64,-77.2 69.16,-173.7 69.16,-289.5l0 -1208.51 1003.62 0 0 1208.51c0,110.98 19.3,202.66 56.3,278.24 36.99,75.6 109.36,141.54 217.13,197.83 56.3,32.18 156.01,61.12 300.76,86.86 143.14,27.34 257.34,41.82 342.58,45.04l0 337.75zm-1920.39 -4078.95l0 -1727.22 -70.76 0 -689.14 1727.22 -433.67 0 694.98 -1786.73c61.12,-154.4 110.98,-316.85 154.4,-484.11 41.82,-168.88 65.94,-281.46 67.56,-337.76l2187.36 0 0 337.76c-88.46,3.21 -199.44,17.68 -336.15,41.81 -136.71,25.74 -236.43,49.86 -297.55,70.78 -107.76,38.6 -180.14,101.32 -217.13,188.18 -37,88.45 -56.3,184.95 -56.3,287.89l0 1682.18 -1003.62 0zm-1527.83 1924.73l-817.15 2048.08 -233.21 0 -762.71 -2048.08 1022.93 0 185.3 489.57 190.43 -489.57 414.42 0zm-2529.86 -1924.73l-686.96 -1844.63 -61.12 0 0 1844.63 -453.56 0 0 -1220.58c0,-197.84 -24.12,-360.28 -70.76,-485.73 -46.64,-125.46 -114.2,-226.78 -202.65,-305.59 -98.12,-85.24 -217.14,-147.98 -358.66,-188.18 -141.54,-41.82 -281.46,-64.34 -419.78,-70.76l0 -337.76 2277.44 0 987.3 2608.6 -1011.24 0zm-748.07 1924.73l0 219.37c0,386.01 24.12,680.33 72.38,881.38 49.85,201.04 123.84,345.8 223.55,432.65 69.16,65.94 212.3,128.68 429.44,188.18 215.51,61.12 357.05,91.68 422.99,94.9l0 337.75 -2692.39 0 0 -337.75c141.54,-12.88 289.5,-35.39 443.91,-70.78 156.01,-33.78 275.03,-86.85 360.27,-156.01 109.38,-86.86 184.96,-221.96 225.18,-403.7 40.2,-181.74 61.11,-487.33 61.11,-913.54l0 -272.45 453.56 0z"/>
   <path class="fil0" d="M13256.24 1157.07c-53.08,3.21 -138.32,24.12 -254.12,64.33 -115.8,38.6 -199.44,77.2 -249.29,114.2 -122.24,75.59 -205.88,133.49 -250.9,175.31 -43.43,40.22 -128.68,146.36 -254.12,320.06 -244.48,344.19 -469.64,694.81 -677.13,1048.65 -95.06,162.87 -200.95,345.67 -317.62,548.39l-500.64 0c278.23,-452.22 503.98,-826.42 676.73,-1122.57 260.55,-443.91 390.83,-710.89 390.83,-797.75 0,-72.37 -27.34,-128.66 -80.42,-173.7 -53.08,-43.42 -123.84,-77.2 -212.3,-102.93 -91.68,-24.12 -189.78,-40.22 -297.55,-48.26 -106.15,-8.04 -205.87,-16.08 -295.94,-25.73l0 -337.76 2322.47 0 0 337.76zm-2750.29 4195.66l0 1171.42c0,112.58 22.51,210.69 67.54,294.33 46.64,83.63 123.84,149.57 233.22,199.43 65.94,25.74 183.35,56.3 352.23,91.68 168.87,37 305.59,56.3 408.53,59.52l0 337.75 -3126.65 0 0 -337.75c88.46,-6.44 220.34,-17.7 395.65,-35.39 176.92,-17.68 299.16,-40.2 368.32,-67.54 114.19,-48.26 191.39,-112.58 233.21,-193 43.42,-82.02 64.34,-183.36 64.34,-302.37l0 -1218.06 1003.62 0zm-1734.96 -1924.73c-66.73,-124.79 -135.47,-252.38 -206.33,-382.73 -230,-424.61 -429.43,-786.49 -598.31,-1087.25 -104.54,-180.14 -196.22,-315.24 -276.64,-405.31 -80.41,-91.68 -172.09,-172.09 -275.03,-239.64 -75.59,-48.24 -165.66,-83.64 -271.81,-109.36 -104.54,-24.13 -199.44,-40.22 -284.68,-46.64l0 -337.76 2854.83 0 0 337.76c-320.06,6.43 -546.83,28.94 -678.72,65.94 -131.9,36.99 -197.84,91.67 -197.84,160.83 0,17.7 9.66,51.48 28.96,98.12 17.68,48.24 45.03,107.76 78.8,178.52 41.82,82.02 90.08,175.31 146.36,279.85 54.68,106.16 107.76,205.88 159.22,303.98 146.36,278.24 295.94,556.49 448.74,834.73l192.6 348.96 -1120.16 0z"/>
  </g>
  <path class="fil1" d="M102.58 5024.47l0 -1210.06 239.98 0 286.19 856.56c26.48,79.72 45.63,139.43 57.74,179.14 13.8,-43.94 35.49,-108.72 64.78,-194.08l291.24 -841.63 214.36 0 0 1210.06 -153.8 0 0 -1012.32 -353.21 1012.32 -144.22 0 -349.28 -1030.92 0 1030.92 -153.79 0z"/>
  <polygon id="_1" class="fil1" points="1644.09,5024.47 1644.09,3814.41 1804.63,3814.41 1804.63,5024.47 "/>
  <path id="_2" class="fil1" d="M2756.05 4549.57l0 -141.96 512.08 0 0 448.42c-78.58,62.53 -159.71,109.85 -243.37,141.39 -83.65,31.55 -169.56,47.32 -257.44,47.32 -118.87,0 -226.74,-25.34 -323.92,-76.33 -96.9,-50.7 -170.41,-124.5 -219.7,-220.55 -49.58,-96.33 -74.36,-203.93 -74.36,-322.51 0,-117.74 24.5,-227.6 73.8,-329.84 49.29,-101.96 119.99,-177.74 212.38,-227.03 92.39,-49.56 198.86,-74.35 319.42,-74.35 87.31,0 166.46,14.08 237.17,42.52 70.7,28.45 126.19,67.89 166.18,118.31 40.28,50.7 70.7,116.9 91.54,198.29l-144.5 39.44c-18.3,-61.4 -40.83,-109.86 -67.59,-145.34 -27.05,-35.21 -65.35,-63.38 -115.48,-84.5 -49.86,-21.13 -105.36,-31.83 -166.48,-31.83 -72.95,0 -136.04,11.26 -189.56,33.52 -53.24,22.25 -96.05,51.54 -129.01,88.16 -32.67,36.33 -58.02,76.33 -76.04,119.71 -30.71,75.2 -46.2,156.33 -46.2,243.92 0,108.16 18.59,198.58 55.48,271.52 37.18,72.68 91.26,126.75 161.96,161.96 70.99,35.21 146.19,52.96 225.91,52.96 69.28,0 136.89,-13.52 202.79,-40.28 65.92,-27.05 115.78,-55.48 149.85,-86.19l0 -226.74 -354.9 0z"/>
  <path id="_3" class="fil1" d="M4400.36 3814.41l160.56 0 0 698.83c0,121.68 -13.8,218.3 -41.13,289.84 -27.6,71.26 -77.18,129.56 -148.72,174.36 -71.82,44.78 -165.62,67.31 -282.24,67.31 -112.94,0 -205.62,-19.42 -277.44,-58.58 -72.11,-39.16 -123.37,-95.49 -154.07,-169.57 -30.71,-74.08 -46.2,-175.19 -46.2,-303.35l0 -698.83 160.56 0 0 698.55c0,105.06 9.85,182.8 29.29,232.38 19.44,49.85 52.67,88.44 100.28,115.2 47.32,27.05 105.34,40.56 173.79,40.56 117.18,0 200.83,-26.76 250.69,-79.99 49.85,-53.52 74.64,-156.05 74.64,-308.15l0 -698.55z"/>
  <polygon id="_4" class="fil1" points="4934.9,5024.47 4934.9,3814.41 5808.64,3814.41 5808.64,3956.36 5095.45,3956.36 5095.45,4328.18 5763.01,4328.18 5763.01,4470.13 5095.45,4470.13 5095.45,4882.51 5837.37,4882.51 5837.37,5024.47 "/>
  <polygon id="_5" class="fil1" points="6155.3,5024.47 6155.3,3814.41 6315.86,3814.41 6315.86,4882.51 6910.74,4882.51 6910.74,5024.47 "/>
  <path id="_6" class="fil1" d="M7819.41 5024.47l0 -512.64 -466.45 -697.43 192.67 0 239.14 366.18c44.5,67.88 85.91,135.77 123.65,203.65 36.9,-63.38 81.69,-134.36 133.79,-213.23l234.35 -356.59 186.75 0 -483.35 697.43 0 512.64 -160.56 0z"/>
  <polygon id="_7" class="fil1" points="8735.9,5024.47 8735.9,3814.41 8896.44,3814.41 8896.44,5024.47 "/>
  <polygon id="_8" class="fil1" points="9589.28,5024.47 9589.28,3956.36 9190.43,3956.36 9190.43,3814.41 10148.68,3814.41 10148.68,3956.36 9749.83,3956.36 9749.83,5024.47 "/>
  <path id="_9" class="fil1" d="M10159.3 5024.47l464.19 -1210.06 176.05 0 492.64 1210.06 -182.24 0 -140 -366.73 -509.54 0 -131.25 366.73 -169.85 0zm348.15 -496.86l412.37 0 -126.19 -335.48c-38.03,-101.96 -66.76,-186.18 -86.76,-252.66 -16.61,78.87 -38.87,156.33 -66.76,232.95l-132.67 355.19z"/>
  <polygon id="_10" class="fil1" points="11520.83,5024.47 11520.83,3814.41 11685.32,3814.41 12320.2,4764.2 12320.2,3814.41 12474,3814.41 12474,5024.47 12309.5,5024.47 11674.62,4074.67 11674.62,5024.47 "/>
  <polygon id="_11" class="fil1" points="12873.34,5024.47 12873.34,3814.41 13033.88,3814.41 13033.88,5024.47 "/>
  <path class="fil1" d="M2105.63 8686.46c0,50.66 -9.66,95.48 -29.22,134.46 -19.56,39.23 -46.73,71.44 -81.25,96.88 -34.05,25.69 -71.58,44.36 -112.3,56.26 -40.97,11.91 -84.23,17.75 -130.03,17.75l-107 0 0 293.45c0,16.11 2.53,29.88 7.81,42.02 5.07,12.15 15.9,21.25 32.24,27.55 8.04,3.27 22.32,6.3 42.81,9.1 20.69,2.57 39.57,4.21 56.59,4.67l0 49.02 -410.09 0 0 -49.02c10.83,-0.94 26.24,-2.57 46.49,-4.67 20.25,-2.33 34.52,-5.36 42.34,-9.1 13.58,-5.83 23.25,-14.48 29.23,-25.91 5.99,-11.44 8.99,-25.92 8.99,-43.66l0 -699.89c0,-15.87 -2.32,-30.12 -6.68,-42.95 -4.6,-12.84 -15.19,-22.41 -31.76,-28.71 -17.03,-5.85 -33.83,-10.04 -50.62,-12.62 -17.03,-2.57 -31.31,-4.19 -43.5,-5.13l0 -49.02 436.32 0c88.83,0 161.1,21.71 216.56,65.36 55.46,43.66 83.07,101.56 83.07,174.16zm-204.82 165.05c15.42,-21.71 25.32,-44.36 30.39,-67.93 4.82,-23.58 7.36,-44.59 7.36,-63.27 0,-25.92 -3,-52.3 -8.99,-79.15 -6.2,-27.07 -16.56,-50.42 -31.29,-70.49 -15.87,-21.48 -36.36,-38.06 -61.9,-49.96 -25.77,-11.91 -57.54,-17.75 -95.74,-17.75l-94.81 0 0 428.61 68.57 0c48.55,0 87.91,-7.71 118.06,-22.88 30.39,-15.4 53.17,-34.32 68.35,-57.2z"/>
  <path id="_1_0" class="fil1" d="M3234.47 9417.62l-257.75 0c-57.06,-90.82 -108.62,-169.25 -154.65,-235.32 -46.02,-66.06 -95.96,-134.24 -149.81,-204.51l-97.8 0 0 307.46c0,15.87 2.53,29.88 7.36,42.02 5.06,12.15 15.42,21.25 31.76,27.55 8.05,3.27 22.09,6.3 42.34,9.1 20.03,2.57 37.29,4.21 51.09,4.67l0 49.02 -403.2 0 0 -49.02c10.83,-0.94 26.24,-2.57 46.49,-4.67 20.25,-2.33 34.53,-5.36 42.35,-9.1 13.58,-5.83 23.23,-14.48 29.22,-25.91 5.99,-11.44 8.99,-25.92 8.99,-43.66l0 -701.06c0,-16.11 -2.31,-30.1 -6.67,-42.49 -4.38,-12.37 -14.97,-21.71 -31.53,-28.01 -11.05,-3.97 -25.55,-7.94 -43.27,-11.21 -17.94,-3.5 -33.12,-5.6 -45.57,-6.54l0 -49.02 441.17 0c40.28,0 78.25,4.19 113.68,12.6 35.67,8.4 67.67,21.94 96.43,40.86 27.85,18.2 50.18,42.02 66.73,71.43 16.57,29.41 24.86,64.91 24.86,106.22 0,37.59 -5.51,70.5 -16.8,99.21 -11.28,28.72 -28.07,53.7 -49.95,74.71 -20.25,19.61 -44.64,36.65 -72.95,50.9 -28.3,14.47 -59.6,26.61 -93.9,36.65 47.18,63.27 86.54,116.73 117.6,160.15 31.3,43.19 69.51,95.95 115.06,157.81 19.79,27.55 37.52,47.63 53.62,60.47 15.88,12.84 31.76,23.58 47.41,31.74 11.74,5.85 26.23,10.27 43.97,13.54 17.49,3.03 31.98,4.91 43.72,5.38l0 49.02zm-354.85 -723.47c0,-58.59 -16.57,-105.28 -49.95,-139.6 -33.14,-34.31 -80.09,-51.59 -140.6,-51.59l-114.61 0 0 416.01 88.14 0c62.13,0 113.68,-20.08 155.11,-60.47 41.19,-40.39 61.91,-95.01 61.91,-164.35z"/>
  <path id="_2_1" class="fil1" d="M4130.19 8561.55c42.35,44.59 75.25,98.52 99.19,161.79 23.7,63.27 35.67,133.3 35.67,209.87 0,77.26 -12.18,147.3 -36.36,210.33 -24.39,63.03 -57.99,116.73 -101.26,160.85 -41.65,43.89 -90.2,77.74 -145.42,101.32 -55.48,23.8 -114.16,35.71 -176.76,35.71 -66.5,0 -127.95,-12.6 -184.32,-38.06 -56.38,-25.21 -104.94,-60.47 -145.45,-105.75 -40.28,-44.36 -72.26,-98.04 -95.27,-161.31 -23.25,-63.27 -34.75,-130.97 -34.75,-203.1 0,-78.92 12.2,-149.41 36.36,-211.28 24.39,-61.86 57.77,-115.32 100.57,-160.38 42.12,-44.82 91.36,-79.14 147.29,-102.72 55.92,-23.81 114.37,-35.71 175.58,-35.71 63.29,0 123.13,12.14 179.29,36.18 56.15,24.28 104.7,58.36 145.66,102.25zm-100.34 689.38c25.32,-41.78 43.51,-88.71 55,-141.47 11.52,-52.54 17.27,-111.13 17.27,-176.26 0,-66.77 -6.45,-127.94 -19.32,-183.73 -12.67,-55.79 -31.55,-103.42 -56.16,-142.64 -24.86,-39 -55.92,-69.11 -93.21,-90.82 -37.27,-21.71 -80.07,-32.68 -128.18,-32.68 -54.07,0 -99.87,12.6 -137.62,37.81 -37.72,24.99 -68.57,58.6 -92.49,100.85 -22.33,40.15 -39.14,87.31 -50.18,141.24 -11.05,53.92 -16.56,110.65 -16.56,169.95 0,65.83 5.75,125.36 17.49,178.35 11.74,53.23 30.14,100.15 55.46,141.47 24.16,40.15 54.77,71.68 91.59,94.32 37.05,22.64 81,33.85 132.31,33.85 48.11,0 91.59,-11.44 130.27,-34.32 38.66,-22.88 70.18,-54.85 94.34,-95.95z"/>
  <path id="_3_2" class="fil1" d="M5203.82 8686.46c0,50.66 -9.67,95.48 -29.23,134.46 -19.56,39.23 -46.73,71.44 -81.25,96.88 -34.05,25.69 -71.57,44.36 -112.3,56.26 -40.97,11.91 -84.23,17.75 -130.03,17.75l-107 0 0 293.45c0,16.11 2.53,29.88 7.82,42.02 5.07,12.15 15.88,21.25 32.22,27.55 8.04,3.27 22.32,6.3 42.81,9.1 20.71,2.57 39.57,4.21 56.61,4.67l0 49.02 -410.1 0 0 -49.02c10.83,-0.94 26.24,-2.57 46.49,-4.67 20.25,-2.33 34.53,-5.36 42.34,-9.1 13.59,-5.83 23.25,-14.48 29.23,-25.91 5.99,-11.44 8.99,-25.92 8.99,-43.66l0 -699.89c0,-15.87 -2.32,-30.12 -6.67,-42.95 -4.61,-12.84 -15.21,-22.41 -31.77,-28.71 -17.02,-5.85 -33.83,-10.04 -50.62,-12.62 -17.03,-2.57 -31.3,-4.19 -43.5,-5.13l0 -49.02 436.32 0c88.83,0 161.1,21.71 216.56,65.36 55.46,43.66 83.08,101.56 83.08,174.16zm-204.83 165.05c15.42,-21.71 25.32,-44.36 30.39,-67.93 4.82,-23.58 7.36,-44.59 7.36,-63.27 0,-25.92 -2.98,-52.3 -8.98,-79.15 -6.22,-27.07 -16.57,-50.42 -31.3,-70.49 -15.87,-21.48 -36.36,-38.06 -61.9,-49.96 -25.77,-11.91 -57.54,-17.75 -95.74,-17.75l-94.81 0 0 428.61 68.57 0c48.57,0 87.92,-7.71 118.06,-22.88 30.39,-15.4 53.17,-34.32 68.35,-57.2z"/>
  <path id="_4_3" class="fil1" d="M5819 9417.62l-430.8 0 0 -49.02c12.2,-0.94 29.68,-2.34 52.7,-4.21 22.78,-1.64 38.9,-4.44 48.33,-8.18 14.95,-5.83 25.76,-14 32.45,-24.27 6.67,-10.27 10.12,-24.52 10.12,-42.72l0 -702.46c0,-15.88 -2.53,-29.19 -7.37,-39.92 -5.06,-10.74 -16.56,-19.61 -35.2,-27.08 -13.36,-5.38 -30.39,-10.51 -50.87,-15.18 -20.47,-4.9 -37.05,-7.7 -50.16,-8.63l0 -49.02 430.8 0 0 49.02c-14.03,0.47 -30.61,2.1 -49.95,5.13 -19.32,3.05 -36.13,6.77 -50.39,11.21 -17.27,5.6 -28.76,14.48 -34.53,26.61 -5.75,12.37 -8.73,26.14 -8.73,41.09l0 701.75c0,15.17 3.22,28.48 9.66,39.92 6.68,11.67 17.73,21.01 33.61,27.77 9.43,3.74 24.62,7.71 46.02,11.91 21.4,4.44 39.59,6.77 54.31,7.24l0 49.02z"/>
  <path id="_5_4" class="fil1" d="M6828.87 9131.88l-18.19 285.74 -793.72 0 0 -49.02c13.58,-0.94 31.53,-2.8 54.09,-5.85 22.54,-3.03 37.27,-6.07 43.94,-9.1 14.5,-7 24.63,-15.87 30.15,-26.85 5.75,-10.73 8.52,-24.74 8.52,-41.55l0 -697.09c0,-14.93 -2.54,-28.24 -7.36,-39.92 -5.07,-11.67 -15.42,-21 -31.31,-28.48 -12.18,-5.83 -28.52,-10.98 -49.01,-15.64 -20.47,-4.44 -36.81,-7.24 -49.02,-8.18l0 -49.02 740.11 0 0 233.91 -51.09 0c-8.98,-34.54 -28.3,-71.2 -58.22,-110.18 -29.7,-38.76 -57.99,-60 -84.92,-63.73 -14.03,-1.64 -30.61,-3.03 -49.71,-3.97 -19.32,-0.94 -41.18,-1.41 -66.04,-1.41l-149.81 0 0 385.2 107.47 0c34.3,0 59.6,-3.27 75.49,-9.8 15.87,-6.77 29.68,-17.75 41.88,-33.16 9.89,-13.31 18.19,-30.81 25.08,-52.99 6.91,-21.94 11.51,-42.72 13.8,-62.33l51.09 0 0 379.59 -51.09 0c-1.84,-21.94 -6.67,-45.05 -14.49,-69.33 -7.83,-24.28 -15.87,-42.02 -24.39,-52.99 -13.8,-17.75 -29.68,-29.18 -47.41,-34.79 -17.72,-5.36 -40.97,-8.16 -69.96,-8.16l-107.47 0 0 291.11c0,29.18 2.07,52.07 5.98,68.88 4.14,16.8 11.96,29.65 23.7,38.28 11.51,8.63 27.61,14.24 47.63,16.81 20.26,2.57 49.02,3.74 86.3,3.74 14.72,0 34.3,0 58.46,0 24.17,0 44.66,-0.94 61.21,-2.8 17.03,-1.87 34.77,-5.14 52.93,-9.8 18.19,-4.91 31.08,-11.44 38.67,-19.61 20.71,-21.72 42.35,-54.87 64.89,-99.46 22.79,-44.35 37.28,-77.03 43.5,-98.04l48.33 0z"/>
  <path id="_6_5" class="fil1" d="M7929.4 8938.11c0,82.41 -15.19,154.08 -45.8,214.78 -30.61,60.69 -70.18,110.41 -119.21,149.17 -49.48,38.75 -104.94,67.69 -166.38,86.85 -61.67,19.14 -125.2,28.71 -190.78,28.71l-396.06 0 0 -49.02c13.12,0 30.14,-1.17 51.09,-3.74 20.94,-2.57 34.74,-5.38 41.65,-8.65 13.34,-5.83 23.25,-14.7 29.23,-26.14 6.22,-11.67 9.21,-25.68 9.21,-42.02l0 -699.89c0,-15.4 -2.54,-29.41 -7.83,-41.55 -5.29,-12.37 -15.65,-22.19 -31.08,-29.41 -14.02,-7 -29.45,-11.91 -45.79,-15.18 -16.34,-3.03 -30.6,-5.13 -42.34,-6.07l0 -49.02 418.14 0c57.77,0 114.37,9.1 170.06,27.08 55.69,17.97 104.48,42.25 145.68,72.84 56.37,40.62 100.32,93.62 132.31,159.45 31.99,65.6 47.87,142.87 47.87,231.81zm-165.7 -0.47c0,-65.13 -8.51,-123.95 -25.54,-176.72 -17.03,-52.52 -41.88,-98.51 -74.56,-137.73 -30.84,-37.36 -68.82,-66.77 -113.93,-88.02 -45.1,-21.47 -95.05,-32.21 -150.27,-32.21 -18.18,0 -38.88,0.23 -62.13,0.94 -23.01,0.69 -40.04,1.39 -51.32,1.86l0 745.88c0,41.31 11.96,70.04 35.67,86.14 23.7,15.87 60.31,23.81 109.55,23.81 56.83,0 106.54,-10.27 149.11,-30.82 42.58,-20.55 77.1,-49.02 103.57,-85.44 27.61,-38.29 47.86,-82.64 60.75,-132.83 12.65,-50.43 19.1,-108.8 19.1,-174.86z"/>
  <path id="_7_6" class="fil1" d="M9026.72 9417.62l-397.67 0 0 -49.02c35.21,-2.34 64.2,-6.77 87.45,-13.78 23.01,-6.77 34.52,-15.18 34.52,-25.22 0,-4.19 -0.22,-9.1 -1.15,-14.93 -0.91,-6.07 -2.31,-11.21 -4.14,-15.87l-79.16 -217.35 -335.76 0c-12.65,31.98 -22.78,59.76 -30.84,83.34 -7.82,23.81 -14.95,45.52 -21.16,65.6 -5.75,19.61 -9.89,35.73 -12.2,47.86 -2.31,12.37 -3.45,22.41 -3.45,30.12 0,18.2 14.27,32.45 42.57,42.49 28.3,10.04 60.29,15.87 95.72,17.75l0 49.02 -360.61 0 0 -49.02c11.75,-0.94 26.24,-3.5 43.97,-7.94 17.49,-4.21 31.76,-10.04 43.04,-17.28 17.94,-12.37 31.98,-25.21 41.88,-38.75 9.89,-13.54 19.56,-31.98 28.99,-55.79 48.1,-121.64 101.02,-258.44 159.03,-410.41 57.99,-151.74 109.76,-286.91 155.11,-405.5l54.08 0 318.95 837.15c6.68,17.75 14.27,32.22 22.79,43.19 8.51,10.98 20.48,21.48 35.9,31.99 10.12,6.54 23.7,11.9 40.28,16.11 16.78,4.44 30.6,6.77 41.88,7.24l0 49.02zm-384.55 -396.4l-145.21 -377.03 -142.91 377.03 288.12 0z"/>
  <path id="_8_7" class="fil1" d="M10063.05 8938.11c0,82.41 -15.19,154.08 -45.8,214.78 -30.61,60.69 -70.18,110.41 -119.21,149.17 -49.48,38.75 -104.94,67.69 -166.38,86.85 -61.67,19.14 -125.2,28.71 -190.78,28.71l-396.06 0 0 -49.02c13.12,0 30.14,-1.17 51.09,-3.74 20.94,-2.57 34.74,-5.38 41.65,-8.65 13.34,-5.83 23.25,-14.7 29.23,-26.14 6.22,-11.67 9.21,-25.68 9.21,-42.02l0 -699.89c0,-15.4 -2.54,-29.41 -7.83,-41.55 -5.29,-12.37 -15.65,-22.19 -31.08,-29.41 -14.02,-7 -29.45,-11.91 -45.79,-15.18 -16.34,-3.03 -30.6,-5.13 -42.34,-6.07l0 -49.02 418.14 0c57.77,0 114.37,9.1 170.06,27.08 55.69,17.97 104.48,42.25 145.68,72.84 56.37,40.62 100.32,93.62 132.31,159.45 31.99,65.6 47.87,142.87 47.87,231.81zm-165.7 -0.47c0,-65.13 -8.51,-123.95 -25.54,-176.72 -17.03,-52.52 -41.88,-98.51 -74.56,-137.73 -30.84,-37.36 -68.82,-66.77 -113.93,-88.02 -45.1,-21.47 -95.05,-32.21 -150.27,-32.21 -18.18,0 -38.88,0.23 -62.13,0.94 -23.01,0.69 -40.04,1.39 -51.32,1.86l0 745.88c0,41.31 11.96,70.04 35.67,86.14 23.7,15.87 60.31,23.81 109.55,23.81 56.83,0 106.54,-10.27 149.11,-30.82 42.58,-20.55 77.1,-49.02 103.57,-85.44 27.61,-38.29 47.86,-82.64 60.75,-132.83 12.65,-50.43 19.1,-108.8 19.1,-174.86z"/>
  <path id="_9_8" class="fil1" d="M11072 9131.88l-18.19 285.74 -793.72 0 0 -49.02c13.58,-0.94 31.53,-2.8 54.09,-5.85 22.56,-3.03 37.27,-6.07 43.94,-9.1 14.5,-7 24.64,-15.87 30.15,-26.85 5.75,-10.73 8.52,-24.74 8.52,-41.55l0 -697.09c0,-14.93 -2.54,-28.24 -7.36,-39.92 -5.07,-11.67 -15.42,-21 -31.31,-28.48 -12.18,-5.83 -28.52,-10.98 -49.01,-15.64 -20.47,-4.44 -36.81,-7.24 -49.02,-8.18l0 -49.02 740.11 0 0 233.91 -51.09 0c-8.98,-34.54 -28.3,-71.2 -58.22,-110.18 -29.68,-38.76 -57.99,-60 -84.92,-63.73 -14.03,-1.64 -30.61,-3.03 -49.7,-3.97 -19.34,-0.94 -41.19,-1.41 -66.05,-1.41l-149.81 0 0 385.2 107.47 0c34.3,0 59.62,-3.27 75.49,-9.8 15.87,-6.77 29.68,-17.75 41.88,-33.16 9.89,-13.31 18.19,-30.81 25.1,-52.99 6.91,-21.94 11.49,-42.72 13.8,-62.33l51.09 0 0 379.59 -51.09 0c-1.84,-21.94 -6.68,-45.05 -14.5,-69.33 -7.82,-24.28 -15.87,-42.02 -24.39,-52.99 -13.8,-17.75 -29.68,-29.18 -47.39,-34.79 -17.73,-5.36 -40.98,-8.16 -69.97,-8.16l-107.47 0 0 291.11c0,29.18 2.07,52.07 5.98,68.88 4.14,16.8 11.96,29.65 23.7,38.28 11.51,8.63 27.61,14.24 47.64,16.81 20.25,2.57 49.01,3.74 86.3,3.74 14.71,0 34.3,0 58.44,0 24.17,0 44.66,-0.94 61.22,-2.8 17.03,-1.87 34.75,-5.14 52.93,-9.8 18.18,-4.91 31.07,-11.44 38.66,-19.61 20.71,-21.72 42.35,-54.87 64.89,-99.46 22.79,-44.35 37.28,-77.03 43.51,-98.04l48.32 0z"/>
  <path id="_10_9" class="fil1" d="M11852.19 8971.96c20.25,22.88 35.22,47.86 44.88,74.93 9.67,27.08 14.49,58.6 14.49,94.79 0,85.67 -31.29,156.41 -93.65,211.97 -62.37,55.79 -139.92,83.58 -232.43,83.58 -42.81,0 -85.38,-6.77 -128.18,-20.31 -42.57,-13.78 -79.4,-30.12 -110.47,-49.26l-28.99 49.96 -53.84 0 -9.66 -331.97 55.22 0c11.27,40.85 24.38,77.97 39.35,110.88 15.18,32.93 34.97,63.73 59.6,92.46 23.47,26.85 50.62,48.32 81.92,64.19 31.07,15.88 67.42,23.81 108.85,23.81 30.84,0 58,-4.21 81.01,-12.37 23.25,-8.18 41.88,-19.61 56.38,-34.79 14.26,-14.93 24.85,-32.45 31.99,-52.76 6.91,-20.31 10.36,-43.66 10.36,-70.04 0,-38.51 -10.83,-74.7 -32.24,-108.08 -21.62,-33.38 -53.84,-58.84 -96.42,-76.1 -29.23,-11.91 -62.6,-24.99 -100.34,-39.45 -37.74,-14.24 -70.18,-27.79 -97.57,-40.62 -54.08,-24.75 -95.97,-56.96 -125.64,-96.88 -29.92,-39.92 -44.89,-92.21 -44.89,-156.41 0,-37.12 7.37,-71.44 22.32,-103.42 14.74,-31.98 35.9,-60.47 63.29,-85.67 26.01,-23.58 56.85,-42.26 92.28,-55.8 35.44,-13.31 72.49,-20.08 111.15,-20.08 43.97,0 83.32,7 118.29,20.78 34.74,13.78 66.51,29.88 95.27,48.1l27.62 -46.46 53.84 0 5.51 322.16 -55.22 0c-9.89,-36.89 -20.94,-72.13 -33.37,-105.99 -12.2,-33.62 -28.3,-64.2 -48.1,-91.52 -19.32,-26.38 -42.81,-47.62 -70.64,-63.27 -27.85,-15.64 -61.91,-23.58 -102.41,-23.58 -42.57,0 -78.94,13.78 -109.09,41.56 -30.14,27.79 -45.1,61.86 -45.1,101.78 0,42.03 9.67,76.57 28.99,104.12 19.34,27.55 47.42,50.19 84.23,67.94 32.68,15.87 64.91,29.88 96.66,41.31 31.74,11.68 62.37,24.28 92.05,37.36 26.92,11.9 52.93,25.44 77.78,40.39 24.86,15.17 46.48,32.68 64.89,52.76z"/>
  <line class="fil2 str0" x1="58.17" y1="43.51" x2="13257.35" y2= "43.51" />
  <line class="fil2 str0" x1="58.17" y1="7910.15" x2="13257.35" y2= "7910.15" />
 </g>
</svg>
